<svg aria-hidden="true" style="position:absolute;width:0;height:0;overflow:hidden" xmlns="http://www.w3.org/2000/svg">
    <defs>
        <symbol id="icon-envelope" viewBox="0 0 43 32">
            <path
                d="M38.667 0H4C1.795 0 0 1.795 0 4v24c0 2.205 1.795 4 4 4h34.667c2.205 0 4-1.795 4-4V4c0-2.205-1.795-4-4-4zm0 2.667c.181 0 .355.037.512.104L21.334 18.238 3.489 2.771c.151-.065.327-.104.512-.104h34.667zm0 26.666H4A1.333 1.333 0 0 1 2.667 28V5.587l17.792 15.421c.233.203.539.327.875.327s.642-.124.876-.328l-.002.001L40 5.587V28c0 .736-.597 1.333-1.333 1.333z" />
        </symbol>
        <symbol id="icon-smartphone" viewBox="0 0 20 32">
            <path
                d="M17 0H3C1.346 0 0 1.346 0 3v26c0 1.654 1.346 3 3 3h14c1.654 0 3-1.346 3-3V3c0-1.654-1.346-3-3-3zM3 2h14a1 1 0 0 1 1 1v21H2V3a1 1 0 0 1 1-1zm14 28H3a1 1 0 0 1-1-1v-3h16v3a1 1 0 0 1-1 1z" />
            <path fill="#757575" style="fill:var(--color1, #757575)"
                d="M4.708 27.478a.887.887 0 0 1 .001 1.318l-.001.001-.001.001a1.044 1.044 0 0 1-1.417 0l.001.001.001.001a.887.887 0 0 1-.001-1.318l.001-.001.001-.001a1.044 1.044 0 0 1 1.418 0l-.001-.001-.001-.001z" />
        </symbol>
        <symbol id="icon-group" viewBox="0 0 30 32">
            <path fill="#212121" style="fill:var(--color2, #212121)"
                d="m29.859 22.098-8.443-8.505.937-4.616c.225.09.485.144.758.146h.033a2.16 2.16 0 1 0-2.024-1.405l-.005-.015-.005-.015-4.96.606L8.059.161a.53.53 0 0 0-.376-.16.533.533 0 0 0-.373.155L5.798 1.66a.534.534 0 0 0 0 .754l.814.825c-1.143 2.062-1.816 4.522-1.816 7.139 0 4.106 1.656 7.824 4.336 10.525l-.001-.001c.041.04.09.072.143.096l.003.001a2.9 2.9 0 0 0-.052.546v6.188h-6.4a2.67 2.67 0 0 0-2.667 2.666v1.067c0 .295.239.534.534.534h24.534a.534.534 0 0 0 .533-.534v-1.067a2.67 2.67 0 0 0-2.666-2.666h-6.4v-2.742c.919.203 1.974.319 3.057.319 2.608 0 5.057-.675 7.184-1.86l-.075.038-.077.039.818.823a.53.53 0 0 0 .376.16.533.533 0 0 0 .373-.155l1.512-1.504a.534.534 0 0 0 0-.754zM22.366 6.233a1.067 1.067 0 1 1 .754 1.822h-.006a1.066 1.066 0 0 1-.747-1.822h-.002zM21.11 9.737l-.598 2.946-1.175-1.183 1.774-1.763zm-.606-.902-1.92 1.909-1.486-1.493 3.406-.416zM23.09 28.8a1.6 1.6 0 0 1 1.6 1.6v.534H1.224V30.4a1.6 1.6 0 0 1 1.6-1.6h20.267zm-7.467-2.134v1.067h-5.334v-1.067h5.334zM10.29 25.6v-4.053c0-1.294 1.196-2.346 2.666-2.346s2.667 1.053 2.667 2.346V25.6H10.29zm6.4-1.696v-2.357c0-1.882-1.675-3.413-3.733-3.413h-.058c-1.353 0-2.54.707-3.213 1.771l-.009.016a13.764 13.764 0 0 1-3.812-9.529v-.022.001c0-2.314.567-4.496 1.569-6.414l-.036.077L26 22.743c-1.823.947-3.979 1.502-6.266 1.502-1.079 0-2.128-.124-3.136-.357l.093.018zm11.289-.684L6.922 2.039l.754-.752 7.935 7.98c.004 0 .006.007.01.01l13.115 13.191-.757.752z" />
            <path fill="#2196f3" style="fill:var(--color3, #2196f3)"
                d="M12.961 20.267H12.952a1.6 1.6 0 0 0-.002 3.2h.008a1.6 1.6 0 0 0 .001-3.2zm.373 1.978a.535.535 0 1 1-.378-.912.532.532 0 0 1 .374.911h.005z" />
        </symbol>
        <symbol id="icon-clock" viewBox="0 0 32 32">
            <path fill="#212121" style="fill:var(--color2, #212121)"
                d="M31.296 15.301C31.295 6.849 24.441-.002 15.988 0S.685 6.855.687 15.308c.002 6.788 4.422 12.543 10.541 14.545l.108.031a.662.662 0 0 0 .532-.066l-.003.002a.64.64 0 0 0 .282-.352l.001-.005 3.865-12.25a1.912 1.912 0 1 0-.864-3.625l.022-.01-5.106-5.107a.638.638 0 0 0-.902.902l5.103 5.109c-.12.239-.191.52-.191.818v.008c0 .602.283 1.137.723 1.48l.004.003-3.682 11.673C3.842 25.783.116 17.71 2.796 10.432S13.55-.572 20.828 2.109c7.278 2.681 11.004 10.754 8.323 18.032-1.345 3.581-4.003 6.406-7.374 7.938l-.088.036-.398-1.874a.64.64 0 0 0-1.051-.342l.001-.001.001-.001-3.837 3.426a.635.635 0 0 0 .222 1.082l.005.001.005.001 4.899 1.563a.637.637 0 0 0 .817-.748l.001.004.001.004-.391-1.839c5.528-2.374 9.329-7.772 9.329-14.057v-.032zm-15.304-.637a.638.638 0 0 1 0 1.276.638.638 0 0 1 0-1.276zm2.1 14.864 2.184-1.948.603 2.84-2.787-.892z" />
            <path fill="#2196f3" style="fill:var(--color3, #2196f3)"
                d="M15.354 3.185V4.46a.638.638 0 0 0 1.276 0V3.185a.638.638 0 0 0-1.276 0zM3.876 14.664a.638.638 0 0 0 0 1.276h1.275a.638.638 0 0 0 0-1.276H3.876zm24.232 1.275a.638.638 0 0 0 0-1.276h-1.275a.638.638 0 0 0 0 1.276h1.275z" />
        </symbol>
        <symbol id="icon-diagram" viewBox="0 0 32 32">
            <path fill="#2196f3" style="fill:var(--color3, #2196f3)"
                d="M14.926 14.965h1.066v4.798h-1.066v-4.797zm4.264 2.132h1.066v2.665H19.19v-2.665zm-8.529 1.599h1.066v1.066h-1.066v-1.066zm-3.198-.533h1.066v1.599H7.463v-1.599z" />
            <path fill="#212121" style="fill:var(--color2, #212121)"
                d="M1.599 28.291h25.587a1.6 1.6 0 0 0 1.599-1.599V24.56a1.6 1.6 0 0 0-1.599-1.599h-.533V9.668L29.681 6.8a1.608 1.608 0 1 0-.741-.753l-.004-.01L26.655 8.2V6.97a1.6 1.6 0 0 0-1.599-1.599H3.734A1.6 1.6 0 0 0 2.135 6.97v15.992h-.533a1.6 1.6 0 0 0-1.599 1.599v2.132a1.6 1.6 0 0 0 1.599 1.599zM30.384 4.837a.534.534 0 1 1 0 1.068.534.534 0 1 1 0-1.068zM3.198 6.969c0-.294.239-.533.533-.533h21.322c.294 0 .533.239.533.533v2.239l-1.066 1.013V8.035a.533.533 0 0 0-.533-.533H4.797a.533.533 0 0 0-.533.533v13.326c0 .294.239.533.533.533h19.19a.533.533 0 0 0 .533-.533v-9.674l1.066-1.01v12.284H3.198V6.969zm4.798 6.93h-.002a1.597 1.597 0 1 0 1.109 2.749h-.001l1.853.93a.528.528 0 0 0 .636-.123v-.001l3.939-4.431 3.872 2.901a.527.527 0 0 0 .686-.039l3.365-3.188v8.131H5.329V8.568h18.124v2.66L19.682 14.8l-3.904-2.927a.534.534 0 0 0-.718.071v.001l-3.993 4.493-1.493-.746c.011-.064.018-.129.02-.193A1.6 1.6 0 0 0 7.995 13.9zm.533 1.599a.533.533 0 1 1-1.068-.001.534.534 0 1 1 1.068 0zm3.198 8.529h5.331v.533a.533.533 0 0 1-.533.533h-4.264a.533.533 0 0 1-.533-.533v-.533zm-10.661.533c0-.294.239-.533.533-.533h9.062v.533a1.6 1.6 0 0 0 1.599 1.599h4.264a1.6 1.6 0 0 0 1.599-1.599v-.533h9.062c.294 0 .533.239.533.533v2.132a.533.533 0 0 1-.533.533H1.598a.533.533 0 0 1-.533-.533V24.56z" />
        </symbol>
        <symbol id="icon-astronaut" viewBox="0 0 32 32">
            <path fill="#2196f3" style="fill:var(--color3, #2196f3)"
                d="M31.974 4.524a.539.539 0 0 0-.424-.362h-.006l-1.911-.278-.855-1.731c-.179-.365-.777-.365-.956 0l-.855 1.731-1.911.278a.534.534 0 0 0-.296.91l1.383 1.348-.326 1.903a.534.534 0 0 0 .524.624.525.525 0 0 0 .253-.064l-.003.001 1.709-.899 1.709.899a.534.534 0 0 0 .773-.569v.006l-.326-1.903 1.383-1.348a.535.535 0 0 0 .133-.553l.001.004.001.004zm-2.463 1.327a.528.528 0 0 0-.153.475v-.003l.191 1.114-1-.526a.515.515 0 0 0-.504.003l.003-.001.003-.001-1 .526.191-1.114a.534.534 0 0 0-.152-.471l-.811-.79 1.119-.162a.537.537 0 0 0 .401-.289l.001-.003.5-1.013.5 1.013a.535.535 0 0 0 .399.292h.003l1.119.162-.809.79zm-3.377 14.671h-1.067v1.067h1.067v-1.067zm0 2.134h-1.067v1.066h1.067v-1.066zm1.066-1.067h-1.067v1.067H27.2v-1.067zm-2.133 0H24v1.067h1.067v-1.067zm-2.667 4.8h-1.067v1.067H22.4v-1.067zm0 2.134h-1.067v1.067H22.4v-1.067zm1.067-1.067H22.4v1.067h1.067v-1.067zm-2.133 0h-1.067v1.067h1.067v-1.067zM16 24.256h-1.066v1.067H16v-1.067zm0 2.133h-1.066v1.067H16v-1.067zm1.067-1.067H16v1.067h1.067v-1.067zm-2.133 0h-1.067v1.067h1.067v-1.067zm-9.067-19.2H4.801v1.066h1.066V6.122zm0 2.134H4.801v1.066h1.066V8.256zm1.066-1.067H5.866v1.067h1.066V7.189zm-2.133 0H3.733v1.067H4.8V7.189z" />
            <path fill="#212121" style="fill:var(--color2, #212121)"
                d="M24.715 14.16a1.774 1.774 0 0 0-1.169-.702l-.01-.001-.009-.001a1.759 1.759 0 0 0-1.348.358l.004-.003.004-.003-1.253.96-1.898 1.417-1.358-.541c2.421-1.086 4.113-3.508 4.113-6.32 0-3.823-3.122-6.934-6.961-6.934S7.869 5.5 7.869 9.324c0 1.386.415 2.674 1.12 3.759l-2.768-.024c-.009 0-.016.005-.023.005a.53.53 0 0 0-.162.034l.003-.001.004-.001c-.013.005-.026.007-.038.013-.006.003-.013.003-.019.006l-3.234 1.597-1.893.91a.593.593 0 0 0-.067.037l.002-.001.001-.001a1.783 1.783 0 0 0-.589 2.316l-.005-.01-.005-.01c.22.424.592.742 1.043.885l.013.003a1.763 1.763 0 0 0 1.397-.137l-.009.005-.009.005 1.388-.738 2.264-1.169 1.357-.008-6.782 6.749a1.638 1.638 0 0 0-.491 1.171v.007a1.668 1.668 0 0 0 1.667 1.664h.005c.459 0 .875-.185 1.177-.485l1.314-1.309 1.741-1.3.901.897-3.102 3.088a1.638 1.638 0 0 0-.491 1.171v.008c0 .918.744 1.662 1.662 1.662h.01c.459 0 .875-.185 1.177-.485l4.488-4.472c.007-.006.016-.009.022-.016l5.166-5.658 3.471.494a.477.477 0 0 0 .265-.033l-.003.001c.017-.006.032-.015.049-.023.019-.01.039-.015.058-.027l3.213-2.133c.012-.008.018-.021.029-.03.013-.01.029-.014.041-.026l1.271-1.191c.348-.326.564-.787.564-1.3 0-.4-.132-.769-.355-1.066l.003.005zM2.13 17.77a.694.694 0 0 1-.569.049l.005.002.005.001a.718.718 0 0 1-.217-1.257l.002-.001.002-.001 1.314-.632.449 1.313-.992.527zm3.497-1.828-1.548.8-.255-.746-.184-.537 2.027-1.001-.04 1.484zm15.1-6.62c0 .918-.219 1.785-.599 2.56l-4.181-1.899a1.867 1.867 0 0 0-.776-1.38l-.006-.004-.006-.004 1.464-4.861c2.377.757 4.104 2.975 4.104 5.588zm-11.789 0c0-3.235 2.644-5.867 5.894-5.867.253 0 .5.022.745.053l-1.432 4.753c-.019 0-.037-.006-.057-.006h-.001a1.872 1.872 0 0 0-1.872 1.867 1.873 1.873 0 0 0 1.872 1.867h.001c.695 0 1.295-.383 1.618-.944l3.863 1.755a5.888 5.888 0 0 1-4.737 2.39c-3.25 0-5.894-2.632-5.894-5.867zm5.957.8c0 .441-.362.8-.806.8h-.001a.804.804 0 0 1-.804-.8c0-.441.361-.8.806-.8s.806.359.806.8zM2.464 25.146a.606.606 0 0 1-.855.001.59.59 0 0 1 0-.844l.962-.959.852.848-.959.954zm3.214 3.734a.606.606 0 0 1-.855.001.59.59 0 0 1 0-.844l.963-.959.852.848-.96.955zm3.482-3.469-.001.001-1.765 1.76-.852-.848 1.765-1.757a.525.525 0 0 0 .089-.133l.001-.003c.007-.014.02-.026.026-.04.016-.041.019-.085.026-.128.003-.025.014-.048.014-.073 0-.035-.013-.07-.02-.105-.006-.032-.006-.064-.019-.096a.563.563 0 0 0-.092-.138c-.01-.012-.014-.026-.025-.038h-.001l-.001-.002-1.607-1.6c-.017-.017-.039-.024-.058-.038a.576.576 0 0 0-.081-.055l-.003-.001-.003-.001a.481.481 0 0 0-.086-.03l-.004-.001-.003-.001a.559.559 0 0 0-.099-.02H6.334a.653.653 0 0 0-.078.005h.006c-.036.005-.069.009-.104.021s-.064.027-.094.045c-.02.011-.043.015-.061.029l-1.774 1.324-.901-.897 2.399-2.386 4.36 4.289-.928.919zm6.819-7.017c-.016-.002-.03.004-.046.003l-.027-.001a.494.494 0 0 0-.095.009h.006a.495.495 0 0 0-.189.071l.002-.001.002-.001a.481.481 0 0 0-.083.061c-.013.011-.028.016-.04.029l-4.698 5.146-4.328-4.256 2.833-2.818a.535.535 0 0 0-.378-.911h-.002l-2.219.013.028-1.607 3.104.027a6.906 6.906 0 0 0 4.97 2.101h.012c.438 0 .864-.046 1.28-.122.04.032.08.064.129.085l2.41.96.152.758.178.886-3.003-.427zm4.041.178-.313-1.558 1.446-1.08.946 1.257-2.08 1.381zm3.753-2.831-.837.785-.931-1.236.831-.637a.734.734 0 0 1 .547-.143h-.004c.352.049.62.348.621.71v.002a.708.708 0 0 1-.226.519z" />
            <path fill="#212121" style="fill:var(--color2, #212121)"
                d="m13.602 18.544-2.143-2.134a.53.53 0 0 0-.752 0l-2.143 2.133a.535.535 0 0 0 0 .756l2.142 2.134a.53.53 0 0 0 .752 0l2.143-2.134a.531.531 0 0 0 0-.756zm-2.519 1.759-1.387-1.381 1.386-1.381 1.387 1.381-1.387 1.381zm6.081-15.232-.258 1.036c.071.018 1.738.452 1.738 2.149h1.067c0-2.017-1.666-2.965-2.547-3.184zm2.547 4.251h-1.067v1.066h1.067V9.322z" />
        </symbol>
        <symbol id="icon-instagram" viewBox="0 0 32 32">
            <path 
                d="M31.968 9.408c-.074-1.701-.349-2.869-.742-3.882a7.867 7.867 0 0 0-1.849-2.836l-.001-.001-.001-.001A7.914 7.914 0 0 0 26.65.88l-.053-.019-.054-.018C25.524.449 24.362.176 22.661.101 20.949.019 20.405 0 16.059 0c-4.344 0-4.888.019-6.595.094-1.699.074-2.869.349-3.88.742a7.884 7.884 0 0 0-2.838 1.849l-.001.001-.001.001A7.909 7.909 0 0 0 .938 5.412l-.019.053-.018.054C.506 6.538.232 7.7.157 9.401c-.082 1.712-.101 2.256-.101 6.602 0 4.344.019 4.888.094 6.595.075 1.701.35 2.869.744 3.882a7.948 7.948 0 0 0 1.848 2.836l.001.001.001.001c.8.813 1.77 1.443 2.832 1.843 1.019.395 2.182.67 3.882.744 1.707.075 2.251.094 6.595.094 4.346 0 4.89-.019 6.595-.094 1.701-.074 2.869-.349 3.882-.742a8.288 8.288 0 0 0 4.644-4.573l.02-.055.019-.055c.394-1.019.669-2.182.744-3.882.075-1.707.093-2.251.093-6.595s-.006-4.888-.08-6.595zm-2.88 13.066c-.07 1.563-.333 2.406-.55 2.97a5.371 5.371 0 0 1-2.968 3.011l-.036.013-.036.012c-.56.219-1.411.482-2.968.55-1.688.075-2.194.094-6.464.094-4.269 0-4.782-.019-6.464-.094-1.563-.069-2.406-.331-2.97-.55a4.98 4.98 0 0 1-1.835-1.191l-.001-.001-.001-.001a4.973 4.973 0 0 1-1.172-1.769l-.012-.034-.011-.034c-.218-.563-.48-1.413-.549-2.97-.075-1.688-.094-2.195-.094-6.464 0-4.27.019-4.784.094-6.464.069-1.563.331-2.406.549-2.97a4.919 4.919 0 0 1 1.197-1.836l.001-.001.002-.002a4.967 4.967 0 0 1 1.772-1.17l.034-.012.034-.011c.56-.219 1.411-.48 2.968-.55 1.688-.074 2.195-.093 6.464-.093 4.275 0 4.782.019 6.464.093 1.563.069 2.406.331 2.97.55a4.935 4.935 0 0 1 1.836 1.193l.001.001c.531.52.938 1.144 1.195 1.84.218.56.48 1.411.549 2.968.075 1.688.094 2.194.094 6.464 0 4.269-.019 4.768-.094 6.458z" />
            <path 
                d="M16.059 7.782a8.223 8.223 0 0 0-8.219 8.221 8.224 8.224 0 0 0 16.442.018v-.019a8.223 8.223 0 0 0-8.221-8.221zm0 13.552a5.333 5.333 0 0 1 .001-10.666h.002a5.334 5.334 0 1 1 0 10.668zM26.525 7.458a1.92 1.92 0 0 1-3.84 0 1.92 1.92 0 0 1 3.84 0z" />
        </symbol>
        <symbol id="icon-twitter" viewBox="0 0 32 32">
            <path 
                d="M32 6.078c-1.1.493-2.376.857-3.713 1.028l-.068.007a6.587 6.587 0 0 0 2.859-3.533l.014-.046.013-.046a12.656 12.656 0 0 1-3.993 1.559l-.083.014-.084.014A6.558 6.558 0 0 0 15.6 9.557v.004c0 .52.043 1.021.152 1.496-5.454-.266-10.28-2.88-13.522-6.861a6.45 6.45 0 0 0-.902 3.31v.004a6.565 6.565 0 0 0 2.891 5.436l.023.015a6.422 6.422 0 0 1-3.026-.84l.032.017.033.017v.072a6.595 6.595 0 0 0 5.169 6.432l.087.016a6.235 6.235 0 0 1-1.645.215h-.075c-.419 0-.843-.024-1.242-.112.85 2.598 3.261 4.509 6.13 4.57a13.012 13.012 0 0 1-8.092 2.8h-.104c-.531 0-1.055-.034-1.569-.099l.061.006c2.826 1.846 6.287 2.944 10.004 2.944h.06c12.072 0 18.672-10 18.672-18.669 0-.288-.01-.57-.024-.848a13.327 13.327 0 0 0 3.229-3.309l.029-.046.03-.047z" />
        </symbol>
        <symbol id="icon-facebook" viewBox="0 0 32 32">
            <path 
                d="M21.328 5.312h2.923V.224A35.256 35.256 0 0 0 20.214 0H19.995c-4.213 0-7.099 2.65-7.099 7.52V12H8.25v5.688h4.646V32h5.699V17.69h4.459l.707-5.688h-5.168V8.08c0-1.643.443-2.768 2.734-2.768z" />
        </symbol>
        <symbol id="icon-linkedin" viewBox="0 0 32 32">
            <path 
                d="M31.992 32H32V20.262c0-5.741-1.237-10.163-7.947-10.163-3.227 0-5.392 1.77-6.277 3.45h-.093v-2.914h-6.365v21.363h6.627V21.42c0-2.786.528-5.48 3.978-5.48 3.398 0 3.448 3.179 3.448 5.658V32h6.621zM.528 10.635h6.635V32H.528V10.635zM3.843 0A3.844 3.844 0 0 0 0 3.843c0 2.12 1.722 3.878 3.843 3.878 2.12 0 3.842-1.757 3.842-3.878S5.965.002 3.844 0z" />
        </symbol>
        <symbol id="icon-group-1" viewBox="0 0 28 32">
            <path 
                d="m4.085 0 4.771 4.517-8.857-.005v21.915h23.149v-8.379l4.766 4.512V.001H4.084zm18.854 17.517L9.411 4.71h13.528v12.807zm-4.2 5.703H3.663V8.482h1.066v13.74H18.74v.997zM7.224 29.345l-.557 1.147-.557-1.147h-.467l.813 1.529v.891h.422v-.891l.811-1.529h-.465zm.7 2.42.196-.564h.938l.197.564h.439l-.916-2.42H8.4l-.914 2.42h.437zm.664-1.906.351 1.004h-.701l.351-1.004zm2.218.945a.54.54 0 0 0-.091.301v.006c0 .204.072.37.214.497s.336.19.575.19h.024c.223 0 .43-.073.596-.197l-.003.002.136.161h.468l-.355-.421c.14-.191.209-.435.209-.733h-.351v.012a.958.958 0 0 1-.104.437l.003-.006-.468-.552.165-.12a.918.918 0 0 0 .247-.246l.002-.003.002-.003a.52.52 0 0 0 .076-.273v-.017a.495.495 0 0 0-.168-.372h-.002a.61.61 0 0 0-.408-.157h-.024c-.195 0-.35.056-.465.166s-.173.259-.173.449c0 .078.018.157.054.241.038.083.104.184.197.302-.179.129-.3.24-.36.334zm1.092.536a.613.613 0 0 1-.382.136h-.021a.395.395 0 0 1-.27-.106.356.356 0 0 1-.108-.257v-.015c0-.129.067-.245.2-.346l.052-.037.528.624zm-.434-1.073c-.114-.141-.172-.257-.172-.351 0-.081.024-.148.07-.201a.239.239 0 0 1 .178-.081h.018c.067 0 .127.026.173.068a.213.213 0 0 1 .072.16V29.872a.3.3 0 0 1-.103.226l-.052.041-.184.127zm3.94 1.315c.166-.145.261-.347.286-.605h-.419c-.022.173-.075.296-.158.37s-.208.112-.372.112c-.18 0-.318-.069-.412-.206s-.14-.337-.14-.599v-.214c.003-.259.052-.453.15-.587a.493.493 0 0 1 .398-.202l.025.001h-.001c.157 0 .276.039.357.116s.133.202.153.376h.419c-.027-.265-.121-.47-.285-.615s-.378-.218-.645-.218h-.017a.97.97 0 0 0-.512.145l.004-.002a.943.943 0 0 0-.343.39l-.002.006-.002.006a1.376 1.376 0 0 0-.122.571v.261c.003.223.045.418.125.587s.193.298.339.39a.94.94 0 0 0 .492.136h.021-.001c.276 0 .497-.072.663-.216zm2.471-.339c.082-.18.123-.388.123-.625v-.158c0-.216-.047-.421-.131-.605l.004.009a.948.948 0 0 0-.346-.404l-.004-.002-.004-.002c-.152-.095-.326-.143-.524-.143s-.372.048-.525.144a.953.953 0 0 0-.352.408l-.002.006c-.079.175-.125.38-.125.595v.166c.001.232.043.436.126.613a.962.962 0 0 0 .352.409l.004.002c.145.09.321.143.51.143h.016-.001.018a.962.962 0 0 0 .512-.146l-.004.002a.958.958 0 0 0 .35-.407l.002-.006zm-.45-1.369c.102.143.152.349.152.618v.126c0 .272-.05.48-.151.622a.489.489 0 0 1-.405.214l-.026-.001h.001-.017a.504.504 0 0 1-.412-.214l-.001-.002-.001-.002c-.104-.145-.155-.351-.155-.617v-.14c.002-.26.054-.462.156-.603a.498.498 0 0 1 .409-.215h.017c.187 0 .33.072.431.214z" />
        </symbol>
        <symbol id="icon-group-2" viewBox="0 0 25 32">
            <path 
                d="M10.532 1.806h-.084a9.502 9.502 0 0 0-.379-.014H9.78c-.244 0-.494.006-.741.018l-.028-.001-.029.001h.001a17.317 17.317 0 0 0-6.678 1.741l.102-.045.104-.045-.266.128v13.626l.623-.212c.404-.148.982-.323 1.569-.477l.162-.036c1.488-.398 3.202-.638 4.967-.661h.014v1.79c-.223.001-.439.007-.655.018h-.052a20.164 20.164 0 0 0-4.111.651l.14-.032.139-.031a19.349 19.349 0 0 0-4.764 1.88l.098-.05.1-.051V2.529A17.523 17.523 0 0 1 5.015.636L5.267.58a17.412 17.412 0 0 1 4.509-.582h.268c.314.008.622.022.91.044.829.06 1.597.187 2.339.378l-.09-.02v1.762a12.568 12.568 0 0 0-2.092-.324l-.042-.002-.045-.003-.044-.004c-.152-.013-.304-.026-.446-.026zm3.101 1.801c.391.03.796.044 1.205.044a19.422 19.422 0 0 0 5.017-.67l-.136.031-.135.03a19.43 19.43 0 0 0 4.764-1.882l-.099.051-.101.051v17.163a17.586 17.586 0 0 1-4.539 1.893l-.125.028-.127.028a17.55 17.55 0 0 1-4.51.581h-.116c-1.177 0-2.319-.147-3.409-.425l.095.021V3.276c.265.062.537.118.814.164.455.077.934.133 1.401.167zm8.734.133-.623.209c-.572.193-1.151.365-1.731.518-1.551.415-3.332.657-5.169.663h-.004c-.406 0-.78-.011-1.141-.034l-.497-.033V19.08l.426.037c.395.035.803.052 1.214.052a16.59 16.59 0 0 0 4.305-.58l-.116.027-.116.026a16.852 16.852 0 0 0 3.384-1.233l-.099.044-.102.044.266-.128V3.739zM1.684 25.977a.915.915 0 0 0-.66-.281h-.001l-.034.001H.977c-.139 0-.272.028-.393.078l.007-.003a.909.909 0 0 0-.508.506l-.002.006-.002.006a.985.985 0 0 0-.071.371v.016-.001 2.335c-.006.164.026.328.092.479.055.12.135.226.234.313a.83.83 0 0 0 .314.165l.006.001c.114.031.231.048.349.048a.985.985 0 0 0 .968-.982v-.261H1.36v.222c0 .07-.013.136-.037.198l.001-.004a.37.37 0 0 1-.089.132.423.423 0 0 1-.255.089.31.31 0 0 1-.286-.124l-.001-.001-.001-.001a.548.548 0 0 1-.082-.288v-.001l.001-.024v.001-2.201c0-.118.028-.23.077-.33l-.002.004a.31.31 0 0 1 .261-.143h.001l.038.002h.011c.107 0 .201.052.26.131l.001.001a.49.49 0 0 1 .101.299v.216h.604v-.249c0-.143-.027-.28-.077-.405l.003.007a.955.955 0 0 0-.205-.329zm3.626-.026a1.045 1.045 0 0 0-1.065-.189l.007-.002a.973.973 0 0 0-.555.505l-.002.006-.002.006a1.07 1.07 0 0 0-.089.43v.023-.001 2.239c-.004.158.026.314.089.458a.906.906 0 0 0 .235.312l.001.001c.09.084.197.15.315.195l.007.002a1.046 1.046 0 0 0 1.06-.199l-.001.001-.001.001a.958.958 0 0 0 .228-.307l.002-.006c.063-.144.093-.301.089-.458v-2.259c0-.156-.033-.305-.092-.439l.003.007a1.027 1.027 0 0 0-.23-.327zm-.285 3.018.002.035v.001a.398.398 0 0 1-.123.288.446.446 0 0 1-.575-.001l.001.001.001.001a.398.398 0 0 1-.123-.288l.002-.04v.004-2.239l-.001-.034c0-.113.047-.216.123-.288a.446.446 0 0 1 .575.001l-.001-.001-.001-.001a.398.398 0 0 1 .123.288l-.002.04v-.004 2.24zm5.047 1v-4.24h-.586l-.771 2.244h-.01l-.777-2.244h-.58v4.239h.606V27.39h.011l.593 1.823h.302l.598-1.823h.01v2.578h.606zm3.441-3.942a.832.832 0 0 0-.336-.23l-.006-.002a1.283 1.283 0 0 0-.411-.066h-.929v4.24h.604v-1.656h.311c.189.009.376-.031.545-.116a.894.894 0 0 0 .327-.316l.002-.004.002-.004a.981.981 0 0 0 .137-.363l.001-.006c.021-.133.033-.287.033-.444v-.038l.001-.07c0-.19-.022-.375-.063-.553l.003.016a.906.906 0 0 0-.223-.39zm-.312 1.292a.552.552 0 0 1-.058.227l.001-.003.001-.003a.346.346 0 0 1-.152.146l-.002.001-.002.001a.608.608 0 0 1-.252.054h-.002l-.033-.001h-.274V26.3h.311l.029-.001c.088 0 .172.02.247.055l-.004-.002c.062.036.11.089.14.152l.001.002.001.002c.032.069.051.15.053.235v.283c0 .098.006.201 0 .291H13.2zm3.173-1.59h-.495l-.934 4.24h.604l.177-.911h.823l.178.911h.604l-.958-4.24zm-.557 2.752.297-1.537h.011l.295 1.537h-.604zm4.46-.198h-.011l-.912-2.554h-.581v4.24h.604v-2.55h.012l.923 2.549h.568v-4.239h-.604v2.554zm3.691-2.554-.486 1.686h-.012l-.486-1.686h-.639l.83 2.448v1.791h.604v-1.791l.83-2.447h-.64zM0 31.166h.291v.817h.198v-.817h.289v-.167H0v.168zm2.447-.168-.382.985h.21l.081-.224h.392l.084.224h.215l-.391-.985h-.21zm-.03.595.134-.365.134.365h-.268zm2.449.027h.228v.127a.38.38 0 0 1-.234.083h-.014a.252.252 0 0 1-.195-.093.4.4 0 0 1-.073-.232v-.002l.001-.023v.001c0-.219.095-.329.283-.329l.021-.001c.097 0 .178.067.201.157v.001l.194-.038c-.042-.192-.18-.289-.417-.289H4.847a.49.49 0 0 0-.33.127.48.48 0 0 0-.143.341l.002.04v-.004.023c0 .132.048.254.127.347l-.001-.001c.087.09.209.146.343.146L4.877 32h.015c.155 0 .296-.06.402-.157v-.388h-.426v.166zm2.471-.622h-.199v.985h.689v-.167h-.49v-.817zm2.089 0h-.199v.985h.199v-.985zm2.043.657-.404-.657h-.193v.985h.185v-.643l.396.643h.198v-.985h-.182v.658zm1.846-.106h.49v-.167h-.49v-.215h.527v-.168h-.727v.985h.747v-.167h-.548v-.266zm4.477-.163h-.388v-.388h-.197v.984h.197v-.431h.388v.431h.198v-.985h-.198v.388zm1.857.163h.492v-.167h-.492v-.215h.529v-.168h-.726v.985h.746v-.167h-.548v-.266zm2.519.001c.171-.027.258-.118.258-.274a.23.23 0 0 0-.095-.219h-.002a.55.55 0 0 0-.249-.059h-.001l-.04.001h-.415v.984h.198v-.412h.055c.039 0 .076.008.109.023l-.002-.001a.195.195 0 0 1 .069.071l.001.001.215.313h.236l-.12-.192a.692.692 0 0 0-.213-.233l-.002-.002-.002-.002zm-.199-.137h-.146v-.247h.156a.5.5 0 0 1 .209.025l-.004-.001-.004-.001a.13.13 0 0 1-.008.2.52.52 0 0 1-.162.025h-.002l-.039-.001h.002zm2.099.136h.49v-.167h-.49v-.215h.529v-.168h-.729v.985h.747v-.167h-.548v-.266z" />
        </symbol>
        <symbol id="icon-group-3" viewBox="0 0 34 32">
            <path 
                d="M5.643 31.315c.012 0 .024.003.035.008s.021.011.03.018l.166.158c-.13.129-.289.232-.468.302a1.745 1.745 0 0 1-.613.109h-.007l-.045-.001h.002-.036c-.21 0-.411-.037-.598-.105l.012.004a1.371 1.371 0 0 1-.471-.287l.001.001.001.001a1.293 1.293 0 0 1-.298-.424l-.003-.008-.003-.008a1.42 1.42 0 0 1-.106-.543v-.052c0-.388.168-.737.436-.977l.001-.001c.14-.122.306-.22.487-.284l.011-.003a1.92 1.92 0 0 1 .621-.101h.061c.199 0 .39.034.568.096l-.012-.004c.165.062.316.149.447.255l-.139.169a.138.138 0 0 1-.034.03h-.002a.096.096 0 0 1-.048.013h-.008a.136.136 0 0 1-.063-.018h.002l-.074-.046-.104-.058a1.178 1.178 0 0 0-.314-.099l-.007-.001-.007-.001a1.396 1.396 0 0 0-.222-.018h-.041c-.16 0-.313.028-.455.079l.009-.003c-.14.05-.261.122-.364.215l.001-.001.001-.001a.987.987 0 0 0-.233.333l-.002.006a1.091 1.091 0 0 0-.085.427v.04c0 .157.031.307.088.444l-.003-.008a.958.958 0 0 0 .569.546l.007.002c.136.049.281.073.427.072.085.001.17-.004.254-.014.211-.022.4-.106.55-.234l-.001.001a.13.13 0 0 1 .078-.029zm4.798-.798v.017c0 .197-.041.384-.116.553l.003-.009a1.243 1.243 0 0 1-.31.434l-.001.001-.001.001c-.138.123-.302.22-.481.283l-.01.003a2.02 2.02 0 0 1-1.292-.008l.014.004.014.004a1.478 1.478 0 0 1-.49-.289l.001.001.001.001a1.277 1.277 0 0 1-.31-.424l-.003-.008-.003-.008a1.442 1.442 0 0 1 .008-1.143l-.004.009-.004.01c.071-.165.178-.315.316-.442.137-.119.3-.213.478-.274l.01-.003a1.995 1.995 0 0 1 1.292.008l-.014-.004-.014-.004c.184.065.351.162.49.286.262.238.427.58.427.961l-.001.041v-.002zm-.436 0V30.491c0-.156-.03-.305-.085-.442l.003.008.003.008a.944.944 0 0 0-.559-.546l-.007-.002-.007-.002a1.431 1.431 0 0 0-.46-.074c-.168 0-.329.028-.479.081l.01-.003.01-.003a1.003 1.003 0 0 0-.352.214h.001a.92.92 0 0 0-.221.325l-.002.006-.002.006a1.301 1.301 0 0 0 .006.92l-.006-.018c.101.261.309.46.569.547l.007.002c.296.097.622.097.918 0a.972.972 0 0 0 .351-.211h-.001a.945.945 0 0 0 .22-.332l.002-.006c.056-.145.082-.298.079-.451zm3.71.473.043.101c.017-.036.031-.069.048-.101.019-.039.037-.072.056-.103l-.002.004 1.061-1.677c.021-.029.04-.047.061-.053s.047-.009.073-.009h.328v2.728h-.372v-2.09a.683.683 0 0 1 0-.098v.004l-1.069 1.701a.162.162 0 0 1-.061.061h-.002a.19.19 0 0 1-.09.023h-.065a.194.194 0 0 1-.09-.023h.002a.153.153 0 0 1-.061-.06v-.002l-1.099-1.711v2.189h-.359v-2.722h.328c.026 0 .051.003.075.01h-.002c.026.011.046.03.058.053l1.084 1.678c.02.028.038.06.053.094l.001.004zm3.995-.135v1.021h-.414v-2.723h.926c.175-.003.349.018.517.059.134.034.259.091.366.17.089.07.159.16.205.262l.002.004c.05.111.073.23.071.349V30.015a.755.755 0 0 1-.297.6l-.002.001-.002.001c-.104.08-.227.142-.361.178l-.007.002c-.14.04-.301.064-.468.064h-.035l-.501-.008zm0-.293h.503c.109.002.218-.013.322-.041a.679.679 0 0 0 .235-.12l-.002.001-.002.001a.52.52 0 0 0 .191-.404v-.007l.001-.029v-.002a.453.453 0 0 0-.044-.195l.001.003.001.003a.534.534 0 0 0-.143-.184l-.001-.001-.001-.001a.882.882 0 0 0-.565-.146h.003-.5v1.122zm5.584 1.318h-.336a.153.153 0 0 1-.085-.026h.001a.175.175 0 0 1-.054-.061v-.002l-.282-.658h-1.419l-.293.658a.157.157 0 0 1-.14.088h-.334l1.246-2.728h.432l1.263 2.728zm-2.057-1.013h1.172l-.494-1.11a1.744 1.744 0 0 1-.091-.243l-.003-.013-.048.142a.924.924 0 0 1-.048.121l-.488 1.103zm3.852-1.701a.185.185 0 0 1 .062.048l1.818 2.056v-2.117h.372v2.728h-.212a.194.194 0 0 1-.083-.018l.001.001h.001a.221.221 0 0 1-.066-.05l-1.816-2.054.001.047-.002.049v-.002 2.027h-.372v-2.728h.22c.025 0 .051.005.075.013zm5.313 1.629v1.083h-.415v-1.082l-1.149-1.643h.381c.03 0 .058.009.082.023h-.002a.228.228 0 0 1 .055.061l.001.001.718 1.06c.049.069.092.149.125.233l.003.008.053-.117c.021-.043.044-.084.071-.124l.709-1.067a.293.293 0 0 1 .053-.058.137.137 0 0 1 .082-.027h.384l-1.15 1.65zm-16.893-6.219c.181.02.363.036.549.05 2.803-1.09 5.174-2.872 6.818-5.126s2.485-4.878 2.421-7.546l-3.09-2.683c.629 2.84.335 5.775-.848 8.478s-3.208 5.067-5.849 6.827z" />
            <path 
                d="m12.407 24.451.083.015c2.822-1.755 4.973-4.203 6.176-7.031s1.402-5.904.571-8.83l-4.4-3.822c1.779 3.142 2.496 6.659 2.065 10.141-.43 3.482-1.989 6.786-4.495 9.528zm14.921-9.345c-.747 2.931-2.563 5.574-5.177 7.538a15.92 15.92 0 0 1-2.278 1.447l-.089.043-.092.043c2.129-.543 4.085-1.504 5.718-2.808s2.901-2.917 3.703-4.714l-1.784-1.549z" />
            <path 
                d="m26.628 14.674-2.54-2.207c-.049 2.517-.872 4.976-2.385 7.122s-3.66 3.902-6.217 5.084h.012c.57 0 1.139-.03 1.705-.088 2.39-.848 4.502-2.197 6.146-3.926s2.771-3.785 3.278-5.985zM12.774 3.17 9.743.534c-2.709.91-5.039 2.509-6.686 4.588S.526 9.664.518 12.188c.01 2.789 1.09 5.495 3.07 7.69 1.979 2.194 4.744 3.754 7.858 4.43 2.779-2.942 4.407-6.578 4.646-10.379s-.924-7.57-3.319-10.758zM33.63 14.268c-.011-3.308-1.528-6.478-4.221-8.818s-6.342-3.658-10.15-3.668h-.028c-1.831 0-3.59.305-5.231.867l.114-.034L32.67 18.737c.605-1.313.958-2.849.96-4.468v-.001z" />
        </symbol>
        <symbol id="icon-group-4" viewBox="0 0 65 32">
            <path 
                d="M10.016 9.983h-.002c-1.827 0-3.308 1.316-3.308 2.94v.002c0 1.624 1.481 2.94 3.308 2.94h.002c1.827 0 3.308-1.317 3.308-2.94v-.002c0-1.624-1.481-2.941-3.308-2.941zm24.418-.939c-.005-2.255-1.016-4.418-2.81-6.012S27.398.539 24.861.534c-2.539.004-4.972.902-6.767 2.497s-2.806 3.757-2.811 6.013v12.437s19.15-1.896 19.152-12.434v-.002zM0 25.562c.005 1.57.709 3.073 1.957 4.183s2.94 1.735 4.706 1.739c1.765-.005 3.457-.63 4.706-1.739s1.952-2.613 1.957-4.181V16.91S.002 18.23.002 25.562zm6.662 1.55c-.345 0-.682-.091-.969-.261a1.633 1.633 0 0 1-.634-.677l-.004-.009-.004-.009a1.38 1.38 0 0 1-.095-.914l-.002.009-.002.009c.075-.319.244-.591.475-.793l.002-.002c.24-.212.54-.362.871-.421l.011-.002.011-.002a1.926 1.926 0 0 1 1.035.096l-.013-.004-.013-.004c.319.117.592.316.783.571s.294.555.294.861c.001.204-.043.407-.131.596-.094.197-.22.365-.374.502l-.002.001-.002.001c-.16.142-.348.257-.555.334l-.012.004a1.88 1.88 0 0 1-.663.119h-.006v-.006zm13.466-.854h-1.286v1.328h-.67v-3.251h2.117v.542h-1.447v.84h1.286v.54zm3.218-.223c0 .32-.056.6-.169.841s-.276.427-.488.558a1.303 1.303 0 0 1-.694.197h-.028c-.27 0-.51-.065-.722-.194a1.314 1.314 0 0 1-.484-.538l-.003-.008-.003-.008a1.85 1.85 0 0 1-.177-.797v-.195c0-.32.058-.602.172-.844a1.288 1.288 0 0 1 1.214-.757h-.002c.271 0 .51.066.721.197.211.13.374.316.489.56.116.242.174.523.174.841v.145zm-.678-.148c0-.341-.061-.6-.183-.777a.596.596 0 0 0-.496-.266l-.028.001h.001l-.025-.001a.597.597 0 0 0-.493.26l-.001.002-.001.002c-.122.174-.184.43-.185.768v.158c0 .331.061.589.183.772s.297.274.527.274l.026.001a.59.59 0 0 0 .488-.259l.001-.002.001-.002c.12-.177.181-.434.183-.773v-.158zm2.85.846.001-.019a.34.34 0 0 0-.132-.269l-.001-.001-.001-.001c-.089-.069-.25-.14-.482-.214a3.381 3.381 0 0 1-.589-.241l.019.009.019.009c-.37-.2-.554-.469-.554-.806 0-.175.049-.332.147-.469a.987.987 0 0 1 .42-.322l.007-.002c.186-.077.395-.116.625-.116.232 0 .439.042.621.127a.975.975 0 0 1 .419.351l.002.004a.919.919 0 0 1 .152.508v.014-.001h-.67l.001-.026a.435.435 0 0 0-.14-.32c-.094-.084-.226-.125-.395-.125-.164 0-.291.035-.382.105a.325.325 0 0 0-.136.264V25.201c0 .106.053.194.158.266.107.071.264.138.471.2.381.114.658.257.833.427s.261.381.261.634c0 .281-.107.503-.32.663s-.498.239-.859.239c-.25 0-.478-.046-.683-.137a1.119 1.119 0 0 1-.467-.37l-.002-.003-.002-.003a.953.953 0 0 1-.16-.531v-.023h.671c0 .358.214.538.643.538l.036.001a.63.63 0 0 0 .34-.099l-.003.002a.32.32 0 0 0 .134-.259v-.012zm3.574-1.855h-.995v2.708h-.67v-2.708h-.981v-.542h2.647v.542zm2.339 1.3h-1.285v.871h1.509v.538h-2.178v-3.251h2.174v.542h-1.505v.775h1.286v.524zm1.819.218h-.533v1.19h-.67v-3.251h1.208c.384 0 .68.086.888.257s.312.413.312.725l.001.037a.99.99 0 0 1-.148.523l.002-.004a.983.983 0 0 1-.423.348l-.006.002-.006.002.702 1.328v.03h-.718l-.61-1.189zm-.533-.542h.541c.168 0 .297-.042.39-.126a.458.458 0 0 0 .139-.329v-.001l-.001-.026v.001c0-.154-.043-.274-.131-.362s-.219-.132-.4-.132h-.538v.975zm4.058.587v1.145h-.67v-3.251h1.268c.244 0 .459.045.643.134.18.084.326.215.427.378l.002.004c.099.164.149.35.149.56 0 .318-.11.57-.328.754-.218.183-.519.275-.904.275h-.587zm0-.542h.598c.178 0 .312-.042.404-.125a.455.455 0 0 0 .142-.33l-.001-.029v.001l.001-.024v-.001a.535.535 0 0 0-.141-.362.525.525 0 0 0-.371-.152h-.019.001-.614v1.021zm4.236.279h-1.285v.871h1.509v.538h-2.178v-3.251h2.174v.542h-1.505v.775h1.286v.524zm3.108-1.3h-.996v2.708h-.67v-2.708h-.982v-.542h2.648v.542zm2.339 1.3h-1.285v.871h1.509v.538h-2.179v-3.251h2.174v.542h-1.504v.775h1.285v.524zm1.819.218h-.533v1.19h-.67v-3.251h1.208c.384 0 .68.086.888.257s.312.413.312.725c0 .222-.049.408-.145.556a.995.995 0 0 1-.423.348l-.006.002-.006.002.703 1.328v.03h-.718l-.61-1.189zm-.533-.542h.54c.168 0 .298-.042.39-.126a.458.458 0 0 0 .139-.329v-.002l-.001-.025v.001l.001-.029a.482.482 0 0 0-.133-.333c-.086-.088-.219-.132-.399-.132h-.538v.975zm3.935.88.001-.019a.34.34 0 0 0-.133-.27l-.001-.001-.001-.001c-.089-.069-.25-.14-.482-.214a3.381 3.381 0 0 1-.589-.241l.019.009.019.009c-.37-.2-.554-.469-.554-.806 0-.175.05-.332.147-.469a.987.987 0 0 1 .42-.322l.007-.002c.186-.077.395-.116.625-.116.232 0 .439.042.621.127a.975.975 0 0 1 .419.351l.002.004a.919.919 0 0 1 .152.508v.014-.001h-.67a.435.435 0 0 0-.139-.346c-.094-.084-.226-.125-.395-.125-.164 0-.291.035-.382.105a.326.326 0 0 0-.137.265v.007c0 .106.053.194.159.266s.264.138.471.2c.381.114.658.257.833.427s.261.381.261.634c0 .281-.107.503-.32.663s-.499.239-.859.239c-.25 0-.478-.046-.683-.137a1.119 1.119 0 0 1-.467-.37l-.002-.003-.002-.003a.953.953 0 0 1-.16-.531v-.023h.671c0 .358.214.538.643.538l.036.001a.63.63 0 0 0 .34-.099l-.003.002a.318.318 0 0 0 .134-.259V26.732z" />
        </symbol>
        <symbol id="icon-group-5" viewBox="0 0 43 32">
            <path 
                d="M3.239 26.373c.155.173.25.402.25.654v.012-.001a.956.956 0 0 1-.095.472l.002-.006.003-.006a1.054 1.054 0 0 1-.294.376l-.002.002-.002.002a1.764 1.764 0 0 1-1.136.306h.006H0V23.97h1.936a1.753 1.753 0 0 1 1.087.287l-.007-.004-.007-.004a.982.982 0 0 1 .286.348l.003.006a.882.882 0 0 1 .087.385l-.002.053v-.002l.001.04a.918.918 0 0 1-.227.605l.001-.001c-.15.168-.358.283-.59.33.262.044.499.172.667.361zM.92 25.737h.828a.835.835 0 0 0 .529-.142l-.003.002a.526.526 0 0 0 .139-.181l.001-.003.001-.003a.453.453 0 0 0 .038-.183v-.002l-.002-.042v.002l.001-.035v-.001a.481.481 0 0 0-.041-.194l.001.003.001.003a.504.504 0 0 0-.137-.186l-.001-.001-.001-.001a.837.837 0 0 0-.548-.142h.003-.812v1.106zm1.435 1.616a.524.524 0 0 0 .15-.187l.001-.003.001-.003a.461.461 0 0 0 .044-.199v-.003l-.001-.035v.002l.001-.031v-.001a.485.485 0 0 0-.048-.212l.001.003.001.003a.537.537 0 0 0-.153-.192l-.001-.001-.001-.001a.886.886 0 0 0-.503-.154l-.065.002h.003H.92v1.16h.88a.933.933 0 0 0 .56-.149l-.004.002zm4.842.832-1.076-1.648h-.405v1.648h-.927V23.97h1.755a1.815 1.815 0 0 1 1.229.365l-.005-.003-.005-.003c.255.234.415.567.42.937v.001c0 .307-.109.589-.291.808l.002-.002a1.46 1.46 0 0 1-.821.426l-.008.001-.008.001 1.147 1.684H7.196zm-1.482-2.222h.758c.526 0 .79-.212.79-.638l.001-.034v-.001a.595.595 0 0 0-.046-.228l.001.004.001.004a.648.648 0 0 0-.15-.218.858.858 0 0 0-.603-.171h.003-.764l.009 1.283zm6.547 1.373h-1.846l-.326.849h-.972l1.695-4.168h1.051l1.689 4.168h-.971l-.319-.848zm-.247-.638-.675-1.779-.675 1.779h1.349zm6.587 1.487h-.919l-2.063-2.866v2.866h-.918v-4.216h.918l2.063 2.883v-2.883h.919v4.216zm5.25-1.009c-.191.318-.48.577-.833.744a2.833 2.833 0 0 1-1.212.267h-.008l-.075-.001h-1.637v-4.215l1.714-.001c.441 0 .859.096 1.235.267l-.019-.008c.352.163.642.419.832.735.189.343.288.722.288 1.106s-.099.763-.288 1.106zm-1.052-.101c.25-.261.404-.616.406-1.006 0-.369-.144-.726-.406-1.006a1.67 1.67 0 0 0-1.162-.358h.005-.634v2.729h.639a1.682 1.682 0 0 0 1.16-.364l-.003.003-.004.003zM12.838.522s11.873 4.104 11.621 10.043V20.61s-11.864-4.106-11.617-10.045L12.838.522zm22.199 17.737a17.01 17.01 0 0 1 7.475-2.54l.069-.005v-3.146c-3.12 1.102-5.767 3.098-7.544 5.691z" />
            <path 
                d="M33.69 19.207c1.835-3.384 5.017-5.995 8.891-7.297V2.849S25.672 8.695 26.029 17.153v14.302s.754-.261 1.939-.752c0-.457 0-.918.054-1.382.349-3.926 2.388-7.564 5.667-10.115z" />
            <path 
                d="M32.082 24.52c.099-1.081.309-2.076.619-3.024l-.027.096c-2.043 2.203-3.279 4.936-3.536 7.816-.025.272-.039.543-.045.824a44.43 44.43 0 0 0 3.771-1.826l-.247.123-.273.133a13.238 13.238 0 0 1-.318-2.921c0-.43.02-.855.059-1.275l-.004.054zm.672.051a13.083 13.083 0 0 0 .24 3.921l-.015-.086-.015-.084c4.62-2.531 9.811-6.442 9.61-11.168v-.412c-3.301.338-6.388 1.659-8.79 3.76a12.484 12.484 0 0 0-1.022 3.97l-.004.049-.004.051z" />
        </symbol>
        <symbol id="icon-group-6" viewBox="0 0 67 32">
            <path 
                d="M33.724 15.223a2.07 2.07 0 0 1-.43-1.426V13.81v-2.051c0-.628.142-1.106.428-1.433.284-.327.774-.489 1.468-.488.652 0 1.116.139 1.389.417.299.355.444.789.411 1.226v.482h-1.166v-.489l.001-.064c0-.146-.013-.289-.037-.428l.002.015a.463.463 0 0 0-.165-.282l-.001-.001-.001-.001a.666.666 0 0 0-.371-.112h-.002l-.052.002h.002a.716.716 0 0 0-.45.119l.003-.002.003-.002a.546.546 0 0 0-.192.305l-.001.004-.001.004c-.03.14-.047.302-.047.467v2.528c-.019.24.033.48.149.698a.55.55 0 0 0 .226.167l.004.001.004.001a.628.628 0 0 0 .308.038H35.2a.624.624 0 0 0 .416-.115l-.002.001-.002.001a.506.506 0 0 0 .174-.296v-.006c.027-.165.04-.332.036-.498v-.505h1.167v.461a1.86 1.86 0 0 1-.409 1.297l.003-.004.003-.004c-.268.304-.725.457-1.397.457s-1.179-.163-1.466-.501zm4.859.022c-.295-.32-.442-.784-.442-1.399v-2.157c0-.609.147-1.07.442-1.383s.787-.469 1.478-.467c.686 0 1.176.156 1.471.467.294.313.444.774.444 1.383v2.156c0 .609-.149 1.077-.449 1.398s-.787.481-1.466.481-1.181-.163-1.479-.479zm2.021-.518c.106-.199.154-.419.14-.638v-2.641a1.184 1.184 0 0 0-.143-.639l.003.006.003.006a.568.568 0 0 0-.23-.169l-.004-.001-.004-.001a.612.612 0 0 0-.315-.037h.006a.64.64 0 0 0-.317.04l.004-.002.004-.002a.572.572 0 0 0-.238.17l-.001.001-.001.001c-.107.195-.154.41-.14.626v2.652c-.014.22.033.439.14.639a.73.73 0 0 0 .241.156l.005.002a.826.826 0 0 0 .611-.004l-.006.002-.006.002a.713.713 0 0 0 .246-.158v-.013zm2.777-4.825h1.256l.944 3.979.967-3.979h1.222l.124 5.743h-.904l-.097-3.991-.932 3.991h-.725l-.966-4.006-.09 4.006h-.913l.114-5.743zm5.92 0h1.957c1.127 0 1.691.543 1.691 1.631 0 1.041-.594 1.562-1.781 1.56h-.666v2.552h-1.208l.007-5.744zm1.672 2.454a.925.925 0 0 0 .668-.184l-.002.002a.922.922 0 0 0 .173-.654v.004l.001-.063c0-.163-.022-.321-.062-.471l.003.013a.43.43 0 0 0-.089-.158.52.52 0 0 0-.146-.113l-.003-.001-.003-.001a1.229 1.229 0 0 0-.474-.094h-.003l-.066.002h-.466v1.717h.469zm3.719-2.454h1.297l1.331 5.743h-1.126l-.263-1.324h-1.157l-.27 1.324h-1.143l1.331-5.743zm1.108 3.753-.452-2.411-.452 2.411h.903zm2.594-3.753h.846l1.618 3.276V9.902h1.003v5.743h-.804l-1.628-3.42v3.42h-1.036l.002-5.743zm5.815 3.552-1.345-3.545h1.133l.821 2.278.77-2.278h1.109l-1.329 3.546v2.19h-1.159v-2.19zM35.59 18.156v.3h-.986v2.334h-.413v-2.334H33.2v-.3h2.389zm3.089 2.634h-.329a.141.141 0 0 1-.081-.025.14.14 0 0 1-.052-.059v-.002l-.285-.626h-1.367l-.284.626a.168.168 0 0 1-.044.071.141.141 0 0 1-.081.025h-.327l1.208-2.634h.42l1.223 2.624zm-2-.978h1.14l-.484-1.072a1.633 1.633 0 0 1-.083-.223l-.003-.012-.003-.014-.045.14-.044.11-.478 1.07zm4.083.719c.076.004.151.004.228 0a1.51 1.51 0 0 0 .203-.033l-.01.002c.059-.012.117-.028.174-.048.053-.018.107-.042.161-.065v-.592h-.487a.095.095 0 0 1-.061-.022.06.06 0 0 1-.018-.021.046.046 0 0 1-.006-.023v-.206h.937v1.01c-.143.09-.308.162-.483.208l-.013.003-.013.003c-.1.026-.2.043-.302.055-.104.01-.225.016-.347.016H40.704c-.212 0-.416-.036-.606-.102l.013.004a1.485 1.485 0 0 1-.488-.279l.002.002.002.002a1.287 1.287 0 0 1-.305-.401l-.003-.008-.003-.008a1.282 1.282 0 0 1-.111-.526V19.464c0-.193.04-.377.112-.543l-.003.009c.069-.156.176-.299.311-.417.138-.119.302-.211.484-.273.206-.068.427-.101.647-.098.112 0 .225.007.336.023.198.029.376.089.538.176l-.009-.004c.074.041.144.087.211.137l-.116.163a.106.106 0 0 1-.038.035h-.002a.109.109 0 0 1-.054.014h-.001a.163.163 0 0 1-.076-.021h.002a1.345 1.345 0 0 1-.133-.07l.007.004.007.004a1.164 1.164 0 0 0-.146-.067l-.008-.002-.008-.002a1.415 1.415 0 0 0-.203-.055l-.01-.002-.009-.001a1.663 1.663 0 0 0-.283-.023h-.039c-.162 0-.317.027-.462.076l.01-.003a1.017 1.017 0 0 0-.357.209l.001-.001a.943.943 0 0 0-.22.315l-.002.006-.002.006a1.233 1.233 0 0 0 .006.896l-.003-.008-.003-.008a.95.95 0 0 0 .241.331l.001.001c.099.09.219.161.352.208.154.046.316.063.479.052zm3.85-.041h1.319v.3h-1.722v-2.634h.412l-.009 2.334zm2.691.3h-.412v-2.634h.412v2.634zm1.537-2.621a.2.2 0 0 1 .063.047l1.766 1.985-.002-.047.002-.049v.002-1.963h.36v2.645h-.222a.185.185 0 0 1-.078-.017h.002a.23.23 0 0 1-.065-.05l-1.764-1.984v2.048h-.346v-2.634h.215c.023 0 .047.004.068.012zm5.23-.013v.289h-1.463v.87h1.186v.279h-1.186v.9h1.463v.289h-1.889v-2.628h1.889zM10.782 1.889l18.343 4.496v15.757l-18.343-4.494V1.888zM9.605.545v17.868l20.693 5.075V5.622L9.605.546z" />
            <path 
                d="M20.696 31.781 0 26.702V8.837l20.696 5.077v17.867z" />
            <path 
                d="m9.948 1.686 18.103 4.44-7.698 6.649L2.246 8.333l7.702-6.647zM9.605.545 0 8.837l20.696 5.077 9.603-8.294L9.606.545zM21.86 30.776l8.439-7.288-8.439-2.069v9.358z" />
        </symbol>
        <symbol id="icon-close-7" viewBox="0 0 11 11">
        <path d="M11 1.10786L9.89214 0L5.5 4.39214L1.10786 0L0 1.10786L4.39214 5.5L0 9.89214L1.10786 11L5.5 6.60786L9.89214 11L11 9.89214L6.60786 5.5L11 1.10786Z"/>
        </symbol>
        <symbol id="icon-person" viewBox="0 0 18 18" >
        <path d="M9 9C10.6575 9 12 7.6575 12 6C12 4.3425 10.6575 3 9 3C7.3425 3 6 4.3425 6 6C6 7.6575 7.3425 9 9 9ZM9 10.5C6.9975 10.5 3 11.505 3 13.5V14.25C3 14.6625 3.3375 15 3.75 15H14.25C14.6625 15 15 14.6625 15 14.25V13.5C15 11.505 11.0025 10.5 9 10.5Z" />
        </symbol>
        <symbol id="icon-phone" viewBox="0 0 18 18" >
        <path d="M13.996 11.1226L12.1579 10.9127C11.7164 10.8621 11.2822 11.0141 10.971 11.3252L9.63945 12.6568C7.59144 11.6147 5.91251 9.94301 4.87041 7.88775L6.20922 6.54894C6.5204 6.23775 6.67237 5.80355 6.62171 5.3621L6.41185 3.53842C6.325 2.8075 5.70988 2.2575 4.97173 2.2575H3.71976C2.902 2.2575 2.22175 2.93776 2.2724 3.75552C2.65595 9.93577 7.59868 14.8713 13.7717 15.2548C14.5894 15.3055 15.2697 14.6252 15.2697 13.8075V12.5555C15.2769 11.8246 14.7269 11.2095 13.996 11.1226Z" />
        </symbol>
        <symbol id="icon-email" viewBox="0 0 18 18" >
        <path d="M15 3H3C2.175 3 1.5075 3.675 1.5075 4.5L1.5 13.5C1.5 14.325 2.175 15 3 15H15C15.825 15 16.5 14.325 16.5 13.5V4.5C16.5 3.675 15.825 3 15 3ZM14.7 6.1875L9.3975 9.5025C9.1575 9.6525 8.8425 9.6525 8.6025 9.5025L3.3 6.1875C3.1125 6.0675 3 5.865 3 5.6475C3 5.145 3.5475 4.845 3.975 5.1075L9 8.25L14.025 5.1075C14.4525 4.845 15 5.145 15 5.6475C15 5.865 14.8875 6.0675 14.7 6.1875Z" />
        </symbol>
        <symbol id="icon-unchecked" viewBox="0 0 16 15" >
        <path d="M14.2222 1.66667V13.3333H1.77778V1.66667H14.2222ZM14.2222 0H1.77778C0.8 0 0 0.75 0 1.66667V13.3333C0 14.25 0.8 15 1.77778 15H14.2222C15.2 15 16 14.25 16 13.3333V1.66667C16 0.75 15.2 0 14.2222 0Z" />
        </symbol>
        <symbol id="icon-checked" viewBox="0 0 16 15"  >
        <rect width="16" height="15" rx="2" fill="#2196F3"/>
        <path d="M3.95703 7.75166L3.88825 7.68604L3.81923 7.75141L2.93123 8.59258L2.85486 8.66492L2.93097 8.73753L6.42671 12.0724L6.49574 12.1382L6.56476 12.0724L14.069 4.91352L14.1449 4.84116L14.069 4.76881L13.1873 3.92764L13.1183 3.86183L13.0493 3.92761L6.49577 10.1735L3.95703 7.75166Z" fill="white" stroke="white" stroke-width="0.2"/>
        </symbol>
            <symbol
                    id="icon-send"
                    viewBox="0 0 512 512"
                    >
                    <path
                        d="M511.6 36.86l-64 415.1c-1.5 9.734-7.375 18.22-15.97 23.05c-4.844 2.719-10.27 4.097-15.68 4.097c-4.188 0-8.319-.8154-12.29-2.472l-122.6-51.1l-50.86 76.29C226.3 508.5 219.8 512 212.8 512C201.3 512 192 502.7 192 491.2v-96.18c0-7.115 2.372-14.03 6.742-19.64L416 96l-293.7 264.3L19.69 317.5C8.438 312.8 .8125 302.2 .0625 289.1s5.469-23.72 16.06-29.77l448-255.1c10.69-6.109 23.88-5.547 34 1.406S513.5 24.72 511.6 36.86z"
                    />
             </symbol>
    </defs>
</svg>